<mxfile host="Electron" agent="Mozilla/5.0 (Windows NT 10.0; Win64; x64) AppleWebKit/537.36 (KHTML, like Gecko) draw.io/24.7.17 Chrome/128.0.6613.36 Electron/32.0.1 Safari/537.36" version="24.7.17">
  <diagram name="1 oldal" id="JoKBwbU9BQB35lz1AdGC">
    <mxGraphModel dx="2293" dy="478" grid="1" gridSize="10" guides="1" tooltips="1" connect="1" arrows="1" fold="1" page="1" pageScale="1" pageWidth="827" pageHeight="1169" math="0" shadow="0">
      <root>
        <mxCell id="0" />
        <mxCell id="1" parent="0" />
        <mxCell id="2r5Lhx14XzTDiAr04c_J-1" value="Állatok" style="rounded=0;whiteSpace=wrap;html=1;fillColor=#d5e8d4;strokeColor=#82b366;fontColor=#000000;" vertex="1" parent="1">
          <mxGeometry x="147" y="640" width="120" height="40" as="geometry" />
        </mxCell>
        <mxCell id="2r5Lhx14XzTDiAr04c_J-2" value="Gazdák" style="rounded=0;whiteSpace=wrap;html=1;fillColor=#d5e8d4;strokeColor=#82b366;fontColor=#000000;" vertex="1" parent="1">
          <mxGeometry x="147" y="320" width="120" height="40" as="geometry" />
        </mxCell>
        <mxCell id="2r5Lhx14XzTDiAr04c_J-3" value="Orvosok" style="rounded=0;whiteSpace=wrap;html=1;fillColor=#d5e8d4;strokeColor=#82b366;fontColor=#000000;" vertex="1" parent="1">
          <mxGeometry x="667" y="480" width="120" height="40" as="geometry" />
        </mxCell>
        <mxCell id="2r5Lhx14XzTDiAr04c_J-5" value="Kezelések" style="rounded=0;whiteSpace=wrap;html=1;fillColor=#d5e8d4;strokeColor=#82b366;fontColor=#000000;" vertex="1" parent="1">
          <mxGeometry x="387" y="320" width="120" height="40" as="geometry" />
        </mxCell>
        <mxCell id="2r5Lhx14XzTDiAr04c_J-35" style="edgeStyle=orthogonalEdgeStyle;rounded=0;orthogonalLoop=1;jettySize=auto;html=1;exitX=0.5;exitY=1;exitDx=0;exitDy=0;fontColor=#000000;" edge="1" parent="1" source="2r5Lhx14XzTDiAr04c_J-12" target="2r5Lhx14XzTDiAr04c_J-1">
          <mxGeometry relative="1" as="geometry" />
        </mxCell>
        <mxCell id="2r5Lhx14XzTDiAr04c_J-36" style="edgeStyle=orthogonalEdgeStyle;rounded=0;orthogonalLoop=1;jettySize=auto;html=1;exitX=0.5;exitY=0;exitDx=0;exitDy=0;entryX=0.5;entryY=1;entryDx=0;entryDy=0;fontColor=#000000;" edge="1" parent="1" source="2r5Lhx14XzTDiAr04c_J-12" target="2r5Lhx14XzTDiAr04c_J-2">
          <mxGeometry relative="1" as="geometry" />
        </mxCell>
        <mxCell id="2r5Lhx14XzTDiAr04c_J-43" style="edgeStyle=orthogonalEdgeStyle;rounded=0;orthogonalLoop=1;jettySize=auto;html=1;exitX=0.5;exitY=1;exitDx=0;exitDy=0;fontColor=#000000;" edge="1" parent="1" source="2r5Lhx14XzTDiAr04c_J-12">
          <mxGeometry relative="1" as="geometry">
            <mxPoint x="207" y="630" as="targetPoint" />
          </mxGeometry>
        </mxCell>
        <mxCell id="2r5Lhx14XzTDiAr04c_J-12" value="G-Á" style="rhombus;whiteSpace=wrap;html=1;fillColor=#e1d5e7;strokeColor=#9673a6;fontColor=#000000;" vertex="1" parent="1">
          <mxGeometry x="182" y="490" width="50" height="30" as="geometry" />
        </mxCell>
        <mxCell id="2r5Lhx14XzTDiAr04c_J-17" value="Vizsgálatok" style="rounded=0;whiteSpace=wrap;html=1;fillColor=#d5e8d4;strokeColor=#82b366;fontColor=#000000;" vertex="1" parent="1">
          <mxGeometry x="387" y="480" width="120" height="40" as="geometry" />
        </mxCell>
        <mxCell id="2r5Lhx14XzTDiAr04c_J-39" style="edgeStyle=orthogonalEdgeStyle;rounded=0;orthogonalLoop=1;jettySize=auto;html=1;exitX=0;exitY=0.5;exitDx=0;exitDy=0;entryX=1;entryY=0.5;entryDx=0;entryDy=0;fontColor=#000000;" edge="1" parent="1" source="2r5Lhx14XzTDiAr04c_J-18" target="2r5Lhx14XzTDiAr04c_J-1">
          <mxGeometry relative="1" as="geometry" />
        </mxCell>
        <mxCell id="2r5Lhx14XzTDiAr04c_J-40" style="edgeStyle=orthogonalEdgeStyle;rounded=0;orthogonalLoop=1;jettySize=auto;html=1;exitX=0.5;exitY=0;exitDx=0;exitDy=0;entryX=0.5;entryY=1;entryDx=0;entryDy=0;fontColor=#000000;" edge="1" parent="1" source="2r5Lhx14XzTDiAr04c_J-18" target="2r5Lhx14XzTDiAr04c_J-17">
          <mxGeometry relative="1" as="geometry" />
        </mxCell>
        <mxCell id="2r5Lhx14XzTDiAr04c_J-44" style="edgeStyle=orthogonalEdgeStyle;rounded=0;orthogonalLoop=1;jettySize=auto;html=1;exitX=0.5;exitY=0;exitDx=0;exitDy=0;fontColor=#000000;" edge="1" parent="1" source="2r5Lhx14XzTDiAr04c_J-18">
          <mxGeometry relative="1" as="geometry">
            <mxPoint x="447" y="530" as="targetPoint" />
          </mxGeometry>
        </mxCell>
        <mxCell id="2r5Lhx14XzTDiAr04c_J-18" value="Á-V" style="rhombus;whiteSpace=wrap;html=1;fillColor=#e1d5e7;strokeColor=#9673a6;fontColor=#000000;" vertex="1" parent="1">
          <mxGeometry x="422" y="642.5" width="50" height="35" as="geometry" />
        </mxCell>
        <mxCell id="2r5Lhx14XzTDiAr04c_J-37" style="edgeStyle=orthogonalEdgeStyle;rounded=0;orthogonalLoop=1;jettySize=auto;html=1;exitX=0.5;exitY=0;exitDx=0;exitDy=0;entryX=0.5;entryY=1;entryDx=0;entryDy=0;fontColor=#000000;" edge="1" parent="1" source="2r5Lhx14XzTDiAr04c_J-23" target="2r5Lhx14XzTDiAr04c_J-5">
          <mxGeometry relative="1" as="geometry" />
        </mxCell>
        <mxCell id="2r5Lhx14XzTDiAr04c_J-38" style="edgeStyle=orthogonalEdgeStyle;rounded=0;orthogonalLoop=1;jettySize=auto;html=1;exitX=0.5;exitY=1;exitDx=0;exitDy=0;entryX=0.5;entryY=0;entryDx=0;entryDy=0;fontColor=#000000;" edge="1" parent="1" source="2r5Lhx14XzTDiAr04c_J-23" target="2r5Lhx14XzTDiAr04c_J-17">
          <mxGeometry relative="1" as="geometry" />
        </mxCell>
        <mxCell id="2r5Lhx14XzTDiAr04c_J-45" style="edgeStyle=orthogonalEdgeStyle;rounded=0;orthogonalLoop=1;jettySize=auto;html=1;exitX=0.5;exitY=0;exitDx=0;exitDy=0;fontColor=#000000;" edge="1" parent="1" source="2r5Lhx14XzTDiAr04c_J-23">
          <mxGeometry relative="1" as="geometry">
            <mxPoint x="447" y="370" as="targetPoint" />
          </mxGeometry>
        </mxCell>
        <mxCell id="2r5Lhx14XzTDiAr04c_J-23" value="V-K" style="rhombus;whiteSpace=wrap;html=1;fillColor=#e1d5e7;strokeColor=#9673a6;fontColor=#000000;" vertex="1" parent="1">
          <mxGeometry x="422" y="410" width="50" height="30" as="geometry" />
        </mxCell>
        <mxCell id="2r5Lhx14XzTDiAr04c_J-41" style="edgeStyle=orthogonalEdgeStyle;rounded=0;orthogonalLoop=1;jettySize=auto;html=1;exitX=0;exitY=0.5;exitDx=0;exitDy=0;entryX=1;entryY=0.5;entryDx=0;entryDy=0;fontColor=#000000;" edge="1" parent="1" source="2r5Lhx14XzTDiAr04c_J-27" target="2r5Lhx14XzTDiAr04c_J-5">
          <mxGeometry relative="1" as="geometry" />
        </mxCell>
        <mxCell id="2r5Lhx14XzTDiAr04c_J-42" style="edgeStyle=orthogonalEdgeStyle;rounded=0;orthogonalLoop=1;jettySize=auto;html=1;exitX=0.5;exitY=1;exitDx=0;exitDy=0;entryX=0.5;entryY=0;entryDx=0;entryDy=0;fontColor=#000000;" edge="1" parent="1" source="2r5Lhx14XzTDiAr04c_J-27" target="2r5Lhx14XzTDiAr04c_J-3">
          <mxGeometry relative="1" as="geometry" />
        </mxCell>
        <mxCell id="2r5Lhx14XzTDiAr04c_J-51" style="edgeStyle=orthogonalEdgeStyle;rounded=0;orthogonalLoop=1;jettySize=auto;html=1;exitX=0;exitY=0.5;exitDx=0;exitDy=0;fontColor=#000000;" edge="1" parent="1" source="2r5Lhx14XzTDiAr04c_J-27">
          <mxGeometry relative="1" as="geometry">
            <mxPoint x="517" y="340" as="targetPoint" />
          </mxGeometry>
        </mxCell>
        <mxCell id="2r5Lhx14XzTDiAr04c_J-27" value="O-K" style="rhombus;whiteSpace=wrap;html=1;fillColor=#e1d5e7;strokeColor=#9673a6;fontColor=#000000;" vertex="1" parent="1">
          <mxGeometry x="702" y="322.5" width="50" height="35" as="geometry" />
        </mxCell>
        <mxCell id="2r5Lhx14XzTDiAr04c_J-48" style="edgeStyle=orthogonalEdgeStyle;rounded=0;orthogonalLoop=1;jettySize=auto;html=1;exitX=1;exitY=0.5;exitDx=0;exitDy=0;entryX=0;entryY=0.5;entryDx=0;entryDy=0;fontColor=#000000;" edge="1" parent="1" source="2r5Lhx14XzTDiAr04c_J-47" target="2r5Lhx14XzTDiAr04c_J-3">
          <mxGeometry relative="1" as="geometry" />
        </mxCell>
        <mxCell id="2r5Lhx14XzTDiAr04c_J-49" style="edgeStyle=orthogonalEdgeStyle;rounded=0;orthogonalLoop=1;jettySize=auto;html=1;exitX=0;exitY=0.5;exitDx=0;exitDy=0;entryX=1;entryY=0.5;entryDx=0;entryDy=0;fontColor=#000000;" edge="1" parent="1" source="2r5Lhx14XzTDiAr04c_J-47" target="2r5Lhx14XzTDiAr04c_J-17">
          <mxGeometry relative="1" as="geometry" />
        </mxCell>
        <mxCell id="2r5Lhx14XzTDiAr04c_J-50" style="edgeStyle=orthogonalEdgeStyle;rounded=0;orthogonalLoop=1;jettySize=auto;html=1;exitX=0;exitY=0.5;exitDx=0;exitDy=0;fontColor=#000000;" edge="1" parent="1" source="2r5Lhx14XzTDiAr04c_J-47">
          <mxGeometry relative="1" as="geometry">
            <mxPoint x="517" y="500" as="targetPoint" />
          </mxGeometry>
        </mxCell>
        <mxCell id="2r5Lhx14XzTDiAr04c_J-47" value="V-O" style="rhombus;whiteSpace=wrap;html=1;fillColor=#e1d5e7;strokeColor=#9673a6;fontColor=#000000;" vertex="1" parent="1">
          <mxGeometry x="557" y="482.5" width="50" height="35" as="geometry" />
        </mxCell>
        <mxCell id="2r5Lhx14XzTDiAr04c_J-56" value="&lt;font style=&quot;font-size: 9px;&quot;&gt;&lt;u&gt;vizsgalat_id&lt;/u&gt;&lt;/font&gt;" style="ellipse;whiteSpace=wrap;html=1;fillColor=#fad9d5;strokeColor=#ae4132;fontColor=#000000;" vertex="1" parent="1">
          <mxGeometry x="267" y="430" width="80" height="20" as="geometry" />
        </mxCell>
        <mxCell id="2r5Lhx14XzTDiAr04c_J-57" value="&lt;font style=&quot;font-size: 9px;&quot;&gt;datum&lt;/font&gt;" style="ellipse;whiteSpace=wrap;html=1;fillColor=#fad9d5;strokeColor=#ae4132;fontColor=#000000;" vertex="1" parent="1">
          <mxGeometry x="267" y="460" width="80" height="20" as="geometry" />
        </mxCell>
        <mxCell id="2r5Lhx14XzTDiAr04c_J-58" value="&lt;font style=&quot;font-size: 9px;&quot;&gt;tipus&lt;/font&gt;" style="ellipse;whiteSpace=wrap;html=1;fillColor=#fad9d5;strokeColor=#ae4132;fontColor=#000000;" vertex="1" parent="1">
          <mxGeometry x="267" y="490" width="80" height="20" as="geometry" />
        </mxCell>
        <mxCell id="2r5Lhx14XzTDiAr04c_J-59" value="&lt;font style=&quot;font-size: 9px;&quot;&gt;allat_id, FK&lt;/font&gt;" style="ellipse;whiteSpace=wrap;html=1;fillColor=#fad9d5;strokeColor=#ae4132;fontColor=#000000;" vertex="1" parent="1">
          <mxGeometry x="267" y="520" width="80" height="20" as="geometry" />
        </mxCell>
        <mxCell id="2r5Lhx14XzTDiAr04c_J-60" value="&lt;font style=&quot;font-size: 9px;&quot;&gt;orvos_id, FK&lt;/font&gt;" style="ellipse;whiteSpace=wrap;html=1;fillColor=#fad9d5;strokeColor=#ae4132;fontColor=#000000;" vertex="1" parent="1">
          <mxGeometry x="267" y="550" width="80" height="20" as="geometry" />
        </mxCell>
        <mxCell id="2r5Lhx14XzTDiAr04c_J-69" value="&lt;font style=&quot;font-size: 9px;&quot;&gt;faj&lt;/font&gt;" style="ellipse;whiteSpace=wrap;html=1;fillColor=#fad9d5;strokeColor=#ae4132;fontColor=#000000;" vertex="1" parent="1">
          <mxGeometry x="167" y="700" width="80" height="20" as="geometry" />
        </mxCell>
        <mxCell id="2r5Lhx14XzTDiAr04c_J-71" value="&lt;font style=&quot;font-size: 9px;&quot;&gt;nev&lt;/font&gt;" style="ellipse;whiteSpace=wrap;html=1;fillColor=#fad9d5;strokeColor=#ae4132;fontColor=#000000;" vertex="1" parent="1">
          <mxGeometry x="80" y="700" width="80" height="20" as="geometry" />
        </mxCell>
        <mxCell id="2r5Lhx14XzTDiAr04c_J-72" value="&lt;font style=&quot;font-size: 9px;&quot;&gt;kor&lt;/font&gt;" style="ellipse;whiteSpace=wrap;html=1;fillColor=#fad9d5;strokeColor=#ae4132;fontColor=#000000;" vertex="1" parent="1">
          <mxGeometry x="254" y="700" width="80" height="20" as="geometry" />
        </mxCell>
        <mxCell id="2r5Lhx14XzTDiAr04c_J-73" value="&lt;font style=&quot;font-size: 9px;&quot;&gt;gazda_id, FK&lt;/font&gt;" style="ellipse;whiteSpace=wrap;html=1;fillColor=#fad9d5;strokeColor=#ae4132;labelBackgroundColor=none;labelBorderColor=none;fontColor=#000000;" vertex="1" parent="1">
          <mxGeometry x="342" y="700" width="80" height="20" as="geometry" />
        </mxCell>
        <mxCell id="2r5Lhx14XzTDiAr04c_J-74" value="&lt;font style=&quot;font-size: 9px;&quot;&gt;&lt;span&gt;allat_id&lt;/span&gt;&lt;/font&gt;" style="ellipse;whiteSpace=wrap;html=1;fillColor=#fad9d5;strokeColor=#ae4132;fontStyle=4;fontColor=#000000;" vertex="1" parent="1">
          <mxGeometry x="-10" y="700" width="80" height="20" as="geometry" />
        </mxCell>
        <mxCell id="2r5Lhx14XzTDiAr04c_J-80" value="&lt;font style=&quot;font-size: 9px;&quot;&gt;nev&lt;/font&gt;" style="ellipse;whiteSpace=wrap;html=1;fillColor=#fad9d5;strokeColor=#ae4132;fontColor=#000000;" vertex="1" parent="1">
          <mxGeometry x="40" y="315" width="80" height="20" as="geometry" />
        </mxCell>
        <mxCell id="2r5Lhx14XzTDiAr04c_J-81" value="&lt;font style=&quot;font-size: 9px;&quot;&gt;cim&lt;/font&gt;" style="ellipse;whiteSpace=wrap;html=1;fillColor=#fad9d5;strokeColor=#ae4132;fontColor=#000000;" vertex="1" parent="1">
          <mxGeometry x="40" y="345" width="80" height="20" as="geometry" />
        </mxCell>
        <mxCell id="2r5Lhx14XzTDiAr04c_J-82" value="&lt;font style=&quot;font-size: 9px;&quot;&gt;&lt;u&gt;gazda_id&lt;/u&gt;&lt;/font&gt;" style="ellipse;whiteSpace=wrap;html=1;fillColor=#fad9d5;strokeColor=#ae4132;fontColor=#000000;" vertex="1" parent="1">
          <mxGeometry x="40" y="285" width="80" height="20" as="geometry" />
        </mxCell>
        <mxCell id="2r5Lhx14XzTDiAr04c_J-83" value="&lt;font style=&quot;font-size: 9px;&quot;&gt;telefonszam&lt;/font&gt;" style="ellipse;whiteSpace=wrap;html=1;fillColor=#fad9d5;strokeColor=#ae4132;fontColor=#000000;" vertex="1" parent="1">
          <mxGeometry x="40" y="375" width="80" height="20" as="geometry" />
        </mxCell>
        <mxCell id="2r5Lhx14XzTDiAr04c_J-88" value="&lt;font style=&quot;font-size: 9px;&quot;&gt;&lt;u&gt;kezeles_id&lt;/u&gt;&lt;/font&gt;" style="ellipse;whiteSpace=wrap;html=1;fillColor=#fad9d5;strokeColor=#ae4132;fontColor=#000000;" vertex="1" parent="1">
          <mxGeometry x="229.5" y="270" width="80" height="20" as="geometry" />
        </mxCell>
        <mxCell id="2r5Lhx14XzTDiAr04c_J-89" value="&lt;font style=&quot;font-size: 9px;&quot;&gt;datum&lt;/font&gt;" style="ellipse;whiteSpace=wrap;html=1;fillColor=#fad9d5;strokeColor=#ae4132;fontColor=#000000;" vertex="1" parent="1">
          <mxGeometry x="407.5" y="270" width="80" height="20" as="geometry" />
        </mxCell>
        <mxCell id="2r5Lhx14XzTDiAr04c_J-90" value="&lt;font style=&quot;font-size: 9px;&quot;&gt;tipus&lt;/font&gt;" style="ellipse;whiteSpace=wrap;html=1;fillColor=#fad9d5;strokeColor=#ae4132;fontColor=#000000;" vertex="1" parent="1">
          <mxGeometry x="317.5" y="270" width="80" height="20" as="geometry" />
        </mxCell>
        <mxCell id="2r5Lhx14XzTDiAr04c_J-92" value="&lt;font style=&quot;font-size: 9px;&quot;&gt;orvos_id, FK&lt;/font&gt;" style="ellipse;whiteSpace=wrap;html=1;fillColor=#fad9d5;strokeColor=#ae4132;fontColor=#000000;" vertex="1" parent="1">
          <mxGeometry x="587.5" y="270" width="77" height="20" as="geometry" />
        </mxCell>
        <mxCell id="2r5Lhx14XzTDiAr04c_J-93" value="&lt;font style=&quot;font-size: 10px;&quot;&gt;&lt;u style=&quot;font-size: 10px;&quot;&gt;orvos_id&lt;/u&gt;&lt;/font&gt;" style="ellipse;whiteSpace=wrap;html=1;fillColor=#fad9d5;strokeColor=#ae4132;fontSize=10;fontColor=#000000;" vertex="1" parent="1">
          <mxGeometry x="477" y="540" width="80" height="20" as="geometry" />
        </mxCell>
        <mxCell id="2r5Lhx14XzTDiAr04c_J-94" value="&lt;font style=&quot;font-size: 9px;&quot;&gt;nev&lt;/font&gt;" style="ellipse;whiteSpace=wrap;html=1;fillColor=#fad9d5;strokeColor=#ae4132;fontColor=#000000;" vertex="1" parent="1">
          <mxGeometry x="570" y="540" width="80" height="20" as="geometry" />
        </mxCell>
        <mxCell id="2r5Lhx14XzTDiAr04c_J-95" value="&lt;font style=&quot;font-size: 9px;&quot;&gt;telefonszam&lt;/font&gt;" style="ellipse;whiteSpace=wrap;html=1;fillColor=#fad9d5;strokeColor=#ae4132;fontColor=#000000;" vertex="1" parent="1">
          <mxGeometry x="747" y="540" width="80" height="20" as="geometry" />
        </mxCell>
        <mxCell id="2r5Lhx14XzTDiAr04c_J-96" value="" style="ellipse;whiteSpace=wrap;html=1;fillColor=#fad9d5;strokeColor=#ae4132;fontColor=#000000;" vertex="1" parent="1">
          <mxGeometry x="660" y="540" width="80" height="20" as="geometry" />
        </mxCell>
        <mxCell id="2r5Lhx14XzTDiAr04c_J-171" value="&lt;font style=&quot;font-size: 9px;&quot;&gt;vizsgalat_id, FK&lt;/font&gt;" style="ellipse;whiteSpace=wrap;html=1;fillColor=#fad9d5;strokeColor=#ae4132;fontColor=#000000;" vertex="1" parent="1">
          <mxGeometry x="497.5" y="270" width="80" height="20" as="geometry" />
        </mxCell>
        <mxCell id="2r5Lhx14XzTDiAr04c_J-175" style="edgeStyle=orthogonalEdgeStyle;rounded=0;orthogonalLoop=1;jettySize=auto;html=1;exitX=0;exitY=0.5;exitDx=0;exitDy=0;fontColor=#000000;" edge="1" parent="1">
          <mxGeometry relative="1" as="geometry">
            <mxPoint x="650" y="499.88" as="targetPoint" />
            <mxPoint x="607" y="499.88" as="sourcePoint" />
          </mxGeometry>
        </mxCell>
        <mxCell id="2r5Lhx14XzTDiAr04c_J-178" value="&lt;font style=&quot;font-size: 9px;&quot;&gt;varos&lt;/font&gt;" style="ellipse;whiteSpace=wrap;html=1;fillColor=#fad9d5;strokeColor=#ae4132;fontColor=#000000;" vertex="1" parent="1">
          <mxGeometry x="-40" y="330" width="63" height="20" as="geometry" />
        </mxCell>
        <mxCell id="2r5Lhx14XzTDiAr04c_J-180" value="&lt;font style=&quot;font-size: 9px;&quot;&gt;iranyitoszam&lt;/font&gt;" style="ellipse;whiteSpace=wrap;html=1;fillColor=#fad9d5;strokeColor=#ae4132;fontColor=#000000;" vertex="1" parent="1">
          <mxGeometry x="-40" y="300" width="63" height="20" as="geometry" />
        </mxCell>
        <mxCell id="2r5Lhx14XzTDiAr04c_J-181" value="&lt;font style=&quot;font-size: 9px;&quot;&gt;utca&lt;/font&gt;" style="ellipse;whiteSpace=wrap;html=1;fillColor=#fad9d5;strokeColor=#ae4132;fontColor=#000000;" vertex="1" parent="1">
          <mxGeometry x="-40" y="360" width="63" height="20" as="geometry" />
        </mxCell>
        <mxCell id="2r5Lhx14XzTDiAr04c_J-182" value="&lt;font style=&quot;font-size: 9px;&quot;&gt;hazszam&lt;/font&gt;" style="ellipse;whiteSpace=wrap;html=1;fillColor=#fad9d5;strokeColor=#ae4132;fontColor=#000000;" vertex="1" parent="1">
          <mxGeometry x="-40" y="390" width="63" height="20" as="geometry" />
        </mxCell>
        <mxCell id="2r5Lhx14XzTDiAr04c_J-183" value="" style="endArrow=none;html=1;rounded=0;exitX=1;exitY=0.5;exitDx=0;exitDy=0;entryX=0;entryY=0.5;entryDx=0;entryDy=0;fontColor=#000000;" edge="1" parent="1" source="2r5Lhx14XzTDiAr04c_J-82" target="2r5Lhx14XzTDiAr04c_J-2">
          <mxGeometry width="50" height="50" relative="1" as="geometry">
            <mxPoint x="150" y="290" as="sourcePoint" />
            <mxPoint x="150" y="340" as="targetPoint" />
          </mxGeometry>
        </mxCell>
        <mxCell id="2r5Lhx14XzTDiAr04c_J-184" value="" style="endArrow=none;html=1;rounded=0;exitX=1;exitY=0.5;exitDx=0;exitDy=0;entryX=0;entryY=0.5;entryDx=0;entryDy=0;fontColor=#000000;" edge="1" parent="1" source="2r5Lhx14XzTDiAr04c_J-80" target="2r5Lhx14XzTDiAr04c_J-2">
          <mxGeometry width="50" height="50" relative="1" as="geometry">
            <mxPoint x="107" y="300" as="sourcePoint" />
            <mxPoint x="157" y="340" as="targetPoint" />
          </mxGeometry>
        </mxCell>
        <mxCell id="2r5Lhx14XzTDiAr04c_J-186" value="" style="endArrow=none;html=1;rounded=0;exitX=1;exitY=0.5;exitDx=0;exitDy=0;entryX=0;entryY=0.5;entryDx=0;entryDy=0;fontColor=#000000;" edge="1" parent="1" source="2r5Lhx14XzTDiAr04c_J-81" target="2r5Lhx14XzTDiAr04c_J-2">
          <mxGeometry width="50" height="50" relative="1" as="geometry">
            <mxPoint x="107" y="330" as="sourcePoint" />
            <mxPoint x="157" y="350" as="targetPoint" />
          </mxGeometry>
        </mxCell>
        <mxCell id="2r5Lhx14XzTDiAr04c_J-187" value="" style="endArrow=none;html=1;rounded=0;exitX=1;exitY=0.5;exitDx=0;exitDy=0;entryX=0;entryY=0.5;entryDx=0;entryDy=0;fontColor=#000000;" edge="1" parent="1" source="2r5Lhx14XzTDiAr04c_J-83" target="2r5Lhx14XzTDiAr04c_J-2">
          <mxGeometry width="50" height="50" relative="1" as="geometry">
            <mxPoint x="117" y="340" as="sourcePoint" />
            <mxPoint x="167" y="360" as="targetPoint" />
          </mxGeometry>
        </mxCell>
        <mxCell id="2r5Lhx14XzTDiAr04c_J-188" value="" style="endArrow=none;html=1;rounded=0;exitX=1;exitY=0.5;exitDx=0;exitDy=0;entryX=0;entryY=0.5;entryDx=0;entryDy=0;fontColor=#000000;" edge="1" parent="1" source="2r5Lhx14XzTDiAr04c_J-180" target="2r5Lhx14XzTDiAr04c_J-81">
          <mxGeometry width="50" height="50" relative="1" as="geometry">
            <mxPoint x="-33" y="260" as="sourcePoint" />
            <mxPoint x="17" y="280" as="targetPoint" />
          </mxGeometry>
        </mxCell>
        <mxCell id="2r5Lhx14XzTDiAr04c_J-189" value="" style="endArrow=none;html=1;rounded=0;exitX=1;exitY=0.5;exitDx=0;exitDy=0;entryX=0;entryY=0.5;entryDx=0;entryDy=0;fontColor=#000000;" edge="1" parent="1" source="2r5Lhx14XzTDiAr04c_J-178" target="2r5Lhx14XzTDiAr04c_J-81">
          <mxGeometry width="50" height="50" relative="1" as="geometry">
            <mxPoint x="-23" y="270" as="sourcePoint" />
            <mxPoint x="27" y="290" as="targetPoint" />
          </mxGeometry>
        </mxCell>
        <mxCell id="2r5Lhx14XzTDiAr04c_J-190" value="" style="endArrow=none;html=1;rounded=0;exitX=1;exitY=0.5;exitDx=0;exitDy=0;entryX=0;entryY=0.5;entryDx=0;entryDy=0;fontColor=#000000;" edge="1" parent="1" source="2r5Lhx14XzTDiAr04c_J-181" target="2r5Lhx14XzTDiAr04c_J-81">
          <mxGeometry width="50" height="50" relative="1" as="geometry">
            <mxPoint x="-13" y="280" as="sourcePoint" />
            <mxPoint x="37" y="300" as="targetPoint" />
          </mxGeometry>
        </mxCell>
        <mxCell id="2r5Lhx14XzTDiAr04c_J-191" value="" style="endArrow=none;html=1;rounded=0;exitX=1;exitY=0.5;exitDx=0;exitDy=0;entryX=0;entryY=0.5;entryDx=0;entryDy=0;fontColor=#000000;" edge="1" parent="1" source="2r5Lhx14XzTDiAr04c_J-182" target="2r5Lhx14XzTDiAr04c_J-81">
          <mxGeometry width="50" height="50" relative="1" as="geometry">
            <mxPoint x="-3" y="290" as="sourcePoint" />
            <mxPoint x="47" y="310" as="targetPoint" />
          </mxGeometry>
        </mxCell>
        <mxCell id="2r5Lhx14XzTDiAr04c_J-192" value="" style="endArrow=none;html=1;rounded=0;exitX=1;exitY=0.5;exitDx=0;exitDy=0;entryX=0;entryY=0.5;entryDx=0;entryDy=0;fontColor=#000000;" edge="1" parent="1" source="2r5Lhx14XzTDiAr04c_J-56" target="2r5Lhx14XzTDiAr04c_J-17">
          <mxGeometry width="50" height="50" relative="1" as="geometry">
            <mxPoint x="350" y="455" as="sourcePoint" />
            <mxPoint x="377" y="500" as="targetPoint" />
          </mxGeometry>
        </mxCell>
        <mxCell id="2r5Lhx14XzTDiAr04c_J-193" value="" style="endArrow=none;html=1;rounded=0;exitX=1;exitY=0.5;exitDx=0;exitDy=0;entryX=0;entryY=0.5;entryDx=0;entryDy=0;fontColor=#000000;" edge="1" parent="1" source="2r5Lhx14XzTDiAr04c_J-57" target="2r5Lhx14XzTDiAr04c_J-17">
          <mxGeometry width="50" height="50" relative="1" as="geometry">
            <mxPoint x="350" y="485" as="sourcePoint" />
            <mxPoint x="377" y="500" as="targetPoint" />
          </mxGeometry>
        </mxCell>
        <mxCell id="2r5Lhx14XzTDiAr04c_J-194" value="" style="endArrow=none;html=1;rounded=0;exitX=1;exitY=0.5;exitDx=0;exitDy=0;entryX=0;entryY=0.5;entryDx=0;entryDy=0;fontColor=#000000;" edge="1" parent="1" source="2r5Lhx14XzTDiAr04c_J-58" target="2r5Lhx14XzTDiAr04c_J-17">
          <mxGeometry width="50" height="50" relative="1" as="geometry">
            <mxPoint x="350" y="515" as="sourcePoint" />
            <mxPoint x="377" y="500" as="targetPoint" />
          </mxGeometry>
        </mxCell>
        <mxCell id="2r5Lhx14XzTDiAr04c_J-195" value="" style="endArrow=none;html=1;rounded=0;exitX=1;exitY=0.5;exitDx=0;exitDy=0;entryX=0;entryY=0.5;entryDx=0;entryDy=0;fontColor=#000000;" edge="1" parent="1" source="2r5Lhx14XzTDiAr04c_J-59" target="2r5Lhx14XzTDiAr04c_J-17">
          <mxGeometry width="50" height="50" relative="1" as="geometry">
            <mxPoint x="350" y="545" as="sourcePoint" />
            <mxPoint x="377" y="500" as="targetPoint" />
          </mxGeometry>
        </mxCell>
        <mxCell id="2r5Lhx14XzTDiAr04c_J-196" value="" style="endArrow=none;html=1;rounded=0;exitX=1;exitY=0.5;exitDx=0;exitDy=0;entryX=0;entryY=0.5;entryDx=0;entryDy=0;fontColor=#000000;" edge="1" parent="1" source="2r5Lhx14XzTDiAr04c_J-60" target="2r5Lhx14XzTDiAr04c_J-17">
          <mxGeometry width="50" height="50" relative="1" as="geometry">
            <mxPoint x="357" y="540" as="sourcePoint" />
            <mxPoint x="387" y="510" as="targetPoint" />
          </mxGeometry>
        </mxCell>
        <mxCell id="2r5Lhx14XzTDiAr04c_J-197" value="" style="endArrow=none;html=1;rounded=0;exitX=0.5;exitY=0;exitDx=0;exitDy=0;entryX=0.5;entryY=1;entryDx=0;entryDy=0;fontColor=#000000;" edge="1" parent="1" source="2r5Lhx14XzTDiAr04c_J-74" target="2r5Lhx14XzTDiAr04c_J-1">
          <mxGeometry width="50" height="50" relative="1" as="geometry">
            <mxPoint x="150" y="710" as="sourcePoint" />
            <mxPoint x="200" y="660" as="targetPoint" />
          </mxGeometry>
        </mxCell>
        <mxCell id="2r5Lhx14XzTDiAr04c_J-198" value="" style="endArrow=none;html=1;rounded=0;exitX=0.5;exitY=0;exitDx=0;exitDy=0;entryX=0.5;entryY=1;entryDx=0;entryDy=0;fontColor=#000000;" edge="1" parent="1" source="2r5Lhx14XzTDiAr04c_J-71" target="2r5Lhx14XzTDiAr04c_J-1">
          <mxGeometry width="50" height="50" relative="1" as="geometry">
            <mxPoint x="107" y="610" as="sourcePoint" />
            <mxPoint x="157" y="670" as="targetPoint" />
          </mxGeometry>
        </mxCell>
        <mxCell id="2r5Lhx14XzTDiAr04c_J-199" value="" style="endArrow=none;html=1;rounded=0;entryX=0.5;entryY=1;entryDx=0;entryDy=0;exitX=0.5;exitY=0;exitDx=0;exitDy=0;fontColor=#000000;" edge="1" parent="1" source="2r5Lhx14XzTDiAr04c_J-69" target="2r5Lhx14XzTDiAr04c_J-1">
          <mxGeometry width="50" height="50" relative="1" as="geometry">
            <mxPoint x="130" y="690" as="sourcePoint" />
            <mxPoint x="167" y="680" as="targetPoint" />
          </mxGeometry>
        </mxCell>
        <mxCell id="2r5Lhx14XzTDiAr04c_J-200" value="" style="endArrow=none;html=1;rounded=0;exitX=0.5;exitY=0;exitDx=0;exitDy=0;entryX=0.5;entryY=1;entryDx=0;entryDy=0;fontColor=#000000;" edge="1" parent="1" source="2r5Lhx14XzTDiAr04c_J-72" target="2r5Lhx14XzTDiAr04c_J-1">
          <mxGeometry width="50" height="50" relative="1" as="geometry">
            <mxPoint x="127" y="630" as="sourcePoint" />
            <mxPoint x="177" y="690" as="targetPoint" />
          </mxGeometry>
        </mxCell>
        <mxCell id="2r5Lhx14XzTDiAr04c_J-201" value="" style="endArrow=none;html=1;rounded=0;exitX=0.5;exitY=0;exitDx=0;exitDy=0;entryX=0.5;entryY=1;entryDx=0;entryDy=0;fontColor=#000000;" edge="1" parent="1" source="2r5Lhx14XzTDiAr04c_J-73" target="2r5Lhx14XzTDiAr04c_J-1">
          <mxGeometry width="50" height="50" relative="1" as="geometry">
            <mxPoint x="137" y="640" as="sourcePoint" />
            <mxPoint x="187" y="700" as="targetPoint" />
          </mxGeometry>
        </mxCell>
        <mxCell id="2r5Lhx14XzTDiAr04c_J-202" value="" style="endArrow=none;html=1;rounded=0;exitX=0.5;exitY=0;exitDx=0;exitDy=0;entryX=0.5;entryY=1;entryDx=0;entryDy=0;fontColor=#000000;" edge="1" parent="1" source="2r5Lhx14XzTDiAr04c_J-93" target="2r5Lhx14XzTDiAr04c_J-3">
          <mxGeometry width="50" height="50" relative="1" as="geometry">
            <mxPoint x="640" y="560" as="sourcePoint" />
            <mxPoint x="690" y="510" as="targetPoint" />
          </mxGeometry>
        </mxCell>
        <mxCell id="2r5Lhx14XzTDiAr04c_J-203" value="" style="endArrow=none;html=1;rounded=0;exitX=0.5;exitY=0;exitDx=0;exitDy=0;entryX=0.5;entryY=1;entryDx=0;entryDy=0;fontColor=#000000;" edge="1" parent="1" source="2r5Lhx14XzTDiAr04c_J-94" target="2r5Lhx14XzTDiAr04c_J-3">
          <mxGeometry width="50" height="50" relative="1" as="geometry">
            <mxPoint x="557" y="620" as="sourcePoint" />
            <mxPoint x="767" y="600" as="targetPoint" />
          </mxGeometry>
        </mxCell>
        <mxCell id="2r5Lhx14XzTDiAr04c_J-204" value="" style="endArrow=none;html=1;rounded=0;exitX=0.5;exitY=0;exitDx=0;exitDy=0;entryX=0.5;entryY=1;entryDx=0;entryDy=0;fontColor=#000000;" edge="1" parent="1" source="2r5Lhx14XzTDiAr04c_J-96" target="2r5Lhx14XzTDiAr04c_J-3">
          <mxGeometry width="50" height="50" relative="1" as="geometry">
            <mxPoint x="567" y="630" as="sourcePoint" />
            <mxPoint x="777" y="610" as="targetPoint" />
          </mxGeometry>
        </mxCell>
        <mxCell id="2r5Lhx14XzTDiAr04c_J-205" value="" style="endArrow=none;html=1;rounded=0;exitX=0.5;exitY=0;exitDx=0;exitDy=0;entryX=0.5;entryY=1;entryDx=0;entryDy=0;fontColor=#000000;" edge="1" parent="1" source="2r5Lhx14XzTDiAr04c_J-95" target="2r5Lhx14XzTDiAr04c_J-3">
          <mxGeometry width="50" height="50" relative="1" as="geometry">
            <mxPoint x="577" y="640" as="sourcePoint" />
            <mxPoint x="787" y="620" as="targetPoint" />
          </mxGeometry>
        </mxCell>
        <mxCell id="2r5Lhx14XzTDiAr04c_J-212" value="" style="endArrow=none;html=1;rounded=0;exitX=0.5;exitY=1;exitDx=0;exitDy=0;entryX=0.5;entryY=0;entryDx=0;entryDy=0;fontColor=#000000;" edge="1" parent="1" source="2r5Lhx14XzTDiAr04c_J-92" target="2r5Lhx14XzTDiAr04c_J-5">
          <mxGeometry width="50" height="50" relative="1" as="geometry">
            <mxPoint x="414" y="150" as="sourcePoint" />
            <mxPoint x="454" y="210" as="targetPoint" />
          </mxGeometry>
        </mxCell>
        <mxCell id="2r5Lhx14XzTDiAr04c_J-213" value="" style="endArrow=none;html=1;rounded=0;exitX=0.5;exitY=1;exitDx=0;exitDy=0;entryX=0.5;entryY=0;entryDx=0;entryDy=0;fontColor=#000000;" edge="1" parent="1" source="2r5Lhx14XzTDiAr04c_J-171" target="2r5Lhx14XzTDiAr04c_J-5">
          <mxGeometry width="50" height="50" relative="1" as="geometry">
            <mxPoint x="414" y="180" as="sourcePoint" />
            <mxPoint x="454" y="210" as="targetPoint" />
          </mxGeometry>
        </mxCell>
        <mxCell id="2r5Lhx14XzTDiAr04c_J-214" value="" style="endArrow=none;html=1;rounded=0;exitX=0.5;exitY=1;exitDx=0;exitDy=0;entryX=0.5;entryY=0;entryDx=0;entryDy=0;fontColor=#000000;" edge="1" parent="1" source="2r5Lhx14XzTDiAr04c_J-89" target="2r5Lhx14XzTDiAr04c_J-5">
          <mxGeometry width="50" height="50" relative="1" as="geometry">
            <mxPoint x="414" y="210" as="sourcePoint" />
            <mxPoint x="454" y="210" as="targetPoint" />
          </mxGeometry>
        </mxCell>
        <mxCell id="2r5Lhx14XzTDiAr04c_J-215" value="" style="endArrow=none;html=1;rounded=0;exitX=0.5;exitY=1;exitDx=0;exitDy=0;entryX=0.5;entryY=0;entryDx=0;entryDy=0;fontColor=#000000;" edge="1" parent="1" source="2r5Lhx14XzTDiAr04c_J-90" target="2r5Lhx14XzTDiAr04c_J-5">
          <mxGeometry width="50" height="50" relative="1" as="geometry">
            <mxPoint x="414" y="240" as="sourcePoint" />
            <mxPoint x="454" y="210" as="targetPoint" />
          </mxGeometry>
        </mxCell>
        <mxCell id="2r5Lhx14XzTDiAr04c_J-216" value="" style="endArrow=none;html=1;rounded=0;exitX=0.5;exitY=1;exitDx=0;exitDy=0;entryX=0.5;entryY=0;entryDx=0;entryDy=0;fontColor=#000000;" edge="1" parent="1" source="2r5Lhx14XzTDiAr04c_J-88" target="2r5Lhx14XzTDiAr04c_J-5">
          <mxGeometry width="50" height="50" relative="1" as="geometry">
            <mxPoint x="414" y="270" as="sourcePoint" />
            <mxPoint x="454" y="210" as="targetPoint" />
          </mxGeometry>
        </mxCell>
        <mxCell id="2r5Lhx14XzTDiAr04c_J-221" value="Egzotikus orvos" style="rounded=0;whiteSpace=wrap;html=1;fillColor=#d5e8d4;strokeColor=#82b366;fontColor=#000000;" vertex="1" parent="1">
          <mxGeometry x="920" y="480" width="120" height="40" as="geometry" />
        </mxCell>
        <mxCell id="2r5Lhx14XzTDiAr04c_J-223" value="" style="edgeStyle=orthogonalEdgeStyle;rounded=0;orthogonalLoop=1;jettySize=auto;html=1;fontColor=#000000;" edge="1" parent="1" source="2r5Lhx14XzTDiAr04c_J-222" target="2r5Lhx14XzTDiAr04c_J-221">
          <mxGeometry relative="1" as="geometry" />
        </mxCell>
        <mxCell id="2r5Lhx14XzTDiAr04c_J-224" value="" style="edgeStyle=orthogonalEdgeStyle;rounded=0;orthogonalLoop=1;jettySize=auto;html=1;fontColor=#000000;" edge="1" parent="1" source="2r5Lhx14XzTDiAr04c_J-222" target="2r5Lhx14XzTDiAr04c_J-3">
          <mxGeometry relative="1" as="geometry" />
        </mxCell>
        <mxCell id="2r5Lhx14XzTDiAr04c_J-222" value="O-E" style="rhombus;whiteSpace=wrap;html=1;fillColor=#e1d5e7;strokeColor=#9673a6;fontColor=#000000;" vertex="1" parent="1">
          <mxGeometry x="827" y="482.5" width="50" height="35" as="geometry" />
        </mxCell>
        <mxCell id="2r5Lhx14XzTDiAr04c_J-226" value="&lt;font style=&quot;font-size: 9px;&quot;&gt;&lt;u&gt;engedely_id&lt;/u&gt;&lt;/font&gt;" style="ellipse;whiteSpace=wrap;html=1;fillColor=#fad9d5;strokeColor=#ae4132;fontColor=#000000;" vertex="1" parent="1">
          <mxGeometry x="850" y="440" width="80" height="20" as="geometry" />
        </mxCell>
        <mxCell id="2r5Lhx14XzTDiAr04c_J-228" value="" style="endArrow=none;html=1;rounded=0;exitX=0.5;exitY=0;exitDx=0;exitDy=0;entryX=0.5;entryY=1;entryDx=0;entryDy=0;fontColor=#000000;" edge="1" parent="1" source="2r5Lhx14XzTDiAr04c_J-221" target="2r5Lhx14XzTDiAr04c_J-226">
          <mxGeometry width="50" height="50" relative="1" as="geometry">
            <mxPoint x="1020" y="560" as="sourcePoint" />
            <mxPoint x="960" y="540" as="targetPoint" />
          </mxGeometry>
        </mxCell>
        <mxCell id="2r5Lhx14XzTDiAr04c_J-229" value="&lt;font style=&quot;font-size: 9px;&quot;&gt;elvegzes_eve&lt;/font&gt;" style="ellipse;whiteSpace=wrap;html=1;fillColor=#fad9d5;strokeColor=#ae4132;fontColor=#000000;" vertex="1" parent="1">
          <mxGeometry x="1030" y="440" width="80" height="20" as="geometry" />
        </mxCell>
        <mxCell id="2r5Lhx14XzTDiAr04c_J-230" value="" style="endArrow=none;html=1;rounded=0;exitX=0.5;exitY=0;exitDx=0;exitDy=0;entryX=0.5;entryY=1;entryDx=0;entryDy=0;fontColor=#000000;" edge="1" parent="1" target="2r5Lhx14XzTDiAr04c_J-229" source="2r5Lhx14XzTDiAr04c_J-221">
          <mxGeometry width="50" height="50" relative="1" as="geometry">
            <mxPoint x="1020" y="487.5" as="sourcePoint" />
            <mxPoint x="1090" y="512.5" as="targetPoint" />
          </mxGeometry>
        </mxCell>
        <mxCell id="2r5Lhx14XzTDiAr04c_J-231" value="&lt;font style=&quot;font-size: 9px;&quot;&gt;&lt;span&gt;orvos_id, FK&lt;/span&gt;&lt;/font&gt;" style="ellipse;whiteSpace=wrap;html=1;fillColor=#fad9d5;strokeColor=#ae4132;fontStyle=0;fontColor=#000000;" vertex="1" parent="1">
          <mxGeometry x="940" y="440" width="80" height="20" as="geometry" />
        </mxCell>
        <mxCell id="2r5Lhx14XzTDiAr04c_J-232" value="" style="endArrow=none;html=1;rounded=0;exitX=0.5;exitY=0;exitDx=0;exitDy=0;entryX=0.5;entryY=1;entryDx=0;entryDy=0;fontColor=#000000;" edge="1" parent="1" source="2r5Lhx14XzTDiAr04c_J-221" target="2r5Lhx14XzTDiAr04c_J-231">
          <mxGeometry width="50" height="50" relative="1" as="geometry">
            <mxPoint x="990" y="490" as="sourcePoint" />
            <mxPoint x="940" y="470" as="targetPoint" />
          </mxGeometry>
        </mxCell>
        <mxCell id="2r5Lhx14XzTDiAr04c_J-233" value="&lt;font style=&quot;font-size: 9px;&quot;&gt;szakterulet&lt;/font&gt;" style="ellipse;whiteSpace=wrap;html=1;fillColor=#fad9d5;strokeColor=#ae4132;fontColor=#000000;" vertex="1" parent="1">
          <mxGeometry x="664.5" y="542.5" width="70" height="15" as="geometry" />
        </mxCell>
        <mxCell id="2r5Lhx14XzTDiAr04c_J-234" value="&lt;font style=&quot;font-size: 10px;&quot;&gt;atlag_idotartam&lt;/font&gt;" style="ellipse;whiteSpace=wrap;html=1;fillColor=#fad9d5;strokeColor=#ae4132;fontSize=10;fontColor=#000000;" vertex="1" parent="1">
          <mxGeometry x="490" y="450" width="80" height="20" as="geometry" />
        </mxCell>
        <mxCell id="2r5Lhx14XzTDiAr04c_J-235" value="" style="endArrow=none;html=1;rounded=0;exitX=0.5;exitY=1;exitDx=0;exitDy=0;entryX=0.5;entryY=0;entryDx=0;entryDy=0;fontColor=#000000;" edge="1" parent="1" source="2r5Lhx14XzTDiAr04c_J-234" target="2r5Lhx14XzTDiAr04c_J-47">
          <mxGeometry width="50" height="50" relative="1" as="geometry">
            <mxPoint x="548.5" y="355" as="sourcePoint" />
            <mxPoint x="581.5" y="465" as="targetPoint" />
          </mxGeometry>
        </mxCell>
        <mxCell id="2r5Lhx14XzTDiAr04c_J-236" value="&lt;font style=&quot;font-size: 10px;&quot;&gt;vizsgalat_koltseg&lt;/font&gt;" style="ellipse;whiteSpace=wrap;html=1;fillColor=#fad9d5;strokeColor=#ae4132;fontSize=10;fontColor=#000000;" vertex="1" parent="1">
          <mxGeometry x="590" y="450" width="80" height="20" as="geometry" />
        </mxCell>
        <mxCell id="2r5Lhx14XzTDiAr04c_J-237" value="" style="endArrow=none;html=1;rounded=0;exitX=0.5;exitY=1;exitDx=0;exitDy=0;entryX=0.5;entryY=0;entryDx=0;entryDy=0;fontColor=#000000;" edge="1" parent="1" source="2r5Lhx14XzTDiAr04c_J-236" target="2r5Lhx14XzTDiAr04c_J-47">
          <mxGeometry width="50" height="50" relative="1" as="geometry">
            <mxPoint x="540" y="480" as="sourcePoint" />
            <mxPoint x="592" y="493" as="targetPoint" />
          </mxGeometry>
        </mxCell>
      </root>
    </mxGraphModel>
  </diagram>
</mxfile>
